<svg width="24" height="24" viewBox="0 0 24 24" fill="none" xmlns="http://www.w3.org/2000/svg">
<path fill-rule="evenodd" clip-rule="evenodd" d="M18.3105 13.5H8.5C7.94772 13.5 7.5 13.0523 7.5 12.5V11.5C7.5 10.9477 7.94772 10.5 8.5 10.5H18.204L17.2821 9.57811C16.8916 9.18758 16.8916 8.55442 17.2821 8.16389L17.9889 7.45711C18.3794 7.06658 19.0126 7.06658 19.4031 7.45711L23.2928 11.3468C23.6834 11.7374 23.6833 12.3706 23.2927 12.7611L19.4031 16.6496C19.0126 17.04 18.3795 17.04 17.989 16.6495L17.2821 15.9426C16.8916 15.5521 16.8916 14.9189 17.2821 14.5284L18.3105 13.5ZM15 5C15 5.55228 14.5523 6 14 6H13C12.4477 6 12 5.55228 12 5V3H4C3.44772 3 3 3.44772 3 4V20C3 20.5523 3.44772 21 4 21H11C11.5523 21 12 20.5523 12 20V19C12 18.4477 12.4477 18 13 18H14C14.5523 18 15 18.4477 15 19V23C15 23.5523 14.5523 24 14 24H1C0.447715 24 0 23.5523 0 23V1C0 0.447716 0.447715 0 1 0H15V5Z" fill="#393837"/>
</svg>
