<svg width="18" height="15" viewBox="0 0 18 15" fill="none" xmlns="http://www.w3.org/2000/svg">
<path d="M7.32812 13.9375C6.8125 13.9375 6.85938 13.75 6.71875 13.2812L5.21875 8.35938L16.7031 1.60938" fill="#CFC5C5"/>
<path d="M7.32812 13.9375C7.65625 13.9375 7.84375 13.75 8.07812 13.5625L10.1875 11.5469L7.5625 9.95312" fill="white"/>
<path d="M7.56249 9.95313L13.8906 14.5938C14.5469 15.0156 15.1094 14.7813 15.2969 13.9375L17.875 1.84376C18.1094 0.812507 17.4531 0.343757 16.75 0.671882L1.70312 6.48438C0.718742 6.85938 0.718742 7.46876 1.51562 7.70313L5.40624 8.92188L14.3125 3.25001C14.7344 3.01563 15.1094 3.10938 14.8281 3.43751" fill="white"/>
</svg>
