<?xml version="1.0" encoding="UTF-8"?>
<svg fill="none" viewBox="0 0 24 24" xmlns="http://www.w3.org/2000/svg">
<path d="m18.31 13.5h-9.8105c-0.55228 0-1-0.4477-1-1v-1c0-0.5523 0.44772-1 1-1h9.704l-0.9219-0.92189c-0.3905-0.39053-0.3905-1.0237 0-1.4142l0.7068-0.70678c0.3905-0.39053 1.0237-0.39053 1.4142 0l3.8897 3.8897c0.3906 0.3906 0.3905 1.0238-1e-4 1.4143l-3.8896 3.8885c-0.3905 0.3904-1.0236 0.3904-1.4141-1e-4l-0.7069-0.7069c-0.3905-0.3905-0.3905-1.0237 0-1.4142l1.0284-1.0284zm-3.3105-8.5c0 0.55228-0.4477 1-1 1h-1c-0.5523 0-1-0.44772-1-1v-2h-8c-0.55228 0-1 0.44772-1 1v16c0 0.5523 0.44772 1 1 1h7c0.5523 0 1-0.4477 1-1v-1c0-0.5523 0.4477-1 1-1h1c0.5523 0 1 0.4477 1 1v4c0 0.5523-0.4477 1-1 1h-13c-0.55228 0-1-0.4477-1-1v-22c0-0.55228 0.44772-1 1-1h14v5z" clip-rule="evenodd" fill="#393837" fill-rule="evenodd"/>
</svg>