<svg width="18" height="12" viewBox="0 0 18 12" fill="none" xmlns="http://www.w3.org/2000/svg">
<path d="M9.84372 11.0156C10.0781 10.9687 10.5 10.875 10.5 10.3125C10.5 10.3125 10.4531 8.90624 11.1093 8.71874C11.7656 8.53124 12.6093 10.0781 13.5 10.6875C14.1562 11.1094 14.6718 11.0625 14.6718 11.0625L17.0625 11.0156C17.0625 11.0156 18.2812 10.9219 17.7187 9.93749C17.6718 9.84374 17.2968 9.23437 15.8906 7.96874C14.4375 6.56249 14.6718 6.79687 16.4062 4.40624C17.4843 2.95312 17.9531 2.06249 17.8125 1.73437C17.625 1.40624 16.875 1.45312 16.875 1.45312H14.2031C13.9218 1.45312 13.7812 1.49999 13.6406 1.73437C13.6406 1.73437 13.2187 2.90624 12.6562 3.84374C11.4843 5.85937 11.0156 5.95312 10.7812 5.81249C10.3593 5.57812 10.4531 4.68749 10.4531 4.07812C10.4531 1.96874 10.7812 1.21874 9.84372 1.03124C9.23435 0.937494 7.0781 0.843744 6.42185 1.17187C6.09372 1.35937 5.90622 1.68749 6.04685 1.73437C6.18747 1.73437 6.60935 1.78124 6.84372 2.06249C7.21872 2.67187 7.2656 5.57812 6.74997 5.85937C6.04685 6.37499 4.2656 2.95312 3.84372 1.82812C3.74997 1.54687 3.60935 1.49999 3.28122 1.40624H0.703099C0.421849 1.40624 -2.56849e-05 1.45312 0.187474 2.01562C1.4531 4.64062 4.0781 11.0625 8.81247 11.0156H9.84372Z" fill="white"/>
</svg>
