<svg width="20" height="14" viewBox="0 0 20 14" fill="none" xmlns="http://www.w3.org/2000/svg">
<path fill-rule="evenodd" clip-rule="evenodd" d="M8.09943 9.18545L8.09886 3.87294L13.0154 6.53836L8.09943 9.18545ZM18.8946 2.95237C18.8946 2.95237 18.7167 1.6495 18.1713 1.07577C17.4793 0.32241 16.7036 0.318858 16.3482 0.275134C13.8018 0.0836917 9.98222 0.0836945 9.98222 0.0836945H9.97426C9.97426 0.0836945 6.15466 0.0836917 3.60826 0.275134C3.25228 0.318858 2.47722 0.32241 1.7846 1.07577C1.23927 1.6495 1.06185 2.95237 1.06185 2.95237C1.06185 2.95237 0.879883 4.48272 0.879883 6.01248V7.44712C0.879883 8.97747 1.06185 10.5072 1.06185 10.5072C1.06185 10.5072 1.23927 11.8101 1.7846 12.3838C2.47722 13.1372 3.38648 13.1136 3.79136 13.1921C5.24709 13.3375 9.97824 13.3824 9.97824 13.3824C9.97824 13.3824 13.8018 13.3765 16.3482 13.185C16.7036 13.1407 17.4793 13.1372 18.1713 12.3838C18.7167 11.8101 18.8946 10.5072 18.8946 10.5072C18.8946 10.5072 19.0766 8.97747 19.0766 7.44712V6.01248C19.0766 4.48272 18.8946 2.95237 18.8946 2.95237Z" fill="white"/>
</svg>
